<svg xmlns="http://www.w3.org/2000/svg" version="1.1" xmlns:xlink="http://www.w3.org/1999/xlink" xmlns:svgjs="http://svgjs.com/svgjs" width="512" height="512" x="0" y="0" viewBox="0 0 512 512" style="enable-background:new 0 0 512 512" xml:space="preserve"><g><path d="M496 344h-8v-64a32.042 32.042 0 0 0-32-32V112a32.042 32.042 0 0 0-32-32H88a32.042 32.042 0 0 0-32 32v136a32.042 32.042 0 0 0-32 32v64h-8a8 8 0 0 0-8 8v32a8 8 0 0 0 8 8h8v32a8 8 0 0 0 8 8h32a8 8 0 0 0 8-8v-32h336v32a8 8 0 0 0 8 8h32a8 8 0 0 0 8-8v-32h8a8 8 0 0 0 8-8v-32a8 8 0 0 0-8-8zM72 112a16.021 16.021 0 0 1 16-16h336a16.021 16.021 0 0 1 16 16v136H424v-40a32.042 32.042 0 0 0-32-32H120a32.042 32.042 0 0 0-32 32v40H72zm336 96v40H104v-40a16.021 16.021 0 0 1 16-16h272a16.021 16.021 0 0 1 16 16zm-336 72h368v64H72z" fill="#ffffff" data-original="#000000"></path></g></svg>