<svg xmlns="http://www.w3.org/2000/svg" version="1.1" xmlns:xlink="http://www.w3.org/1999/xlink" xmlns:svgjs="http://svgjs.com/svgjs" width="512" height="512" x="0" y="0" viewBox="0 0 512 512" style="enable-background:new 0 0 512 512" xml:space="preserve"><g><path d="M256 6C117.929 6 6 117.929 6 256s111.929 250 250 250 250-111.929 250-250S394.071 6 256 6zm92.738 377.871H163.262v-15.18C263.6 250.347 277.42 231.222 277.42 209.812c0-13.522-8.909-25.943-29.612-25.943-19.671 0-30.066 12.2-30.842 30.067h-62.927c1.982-56.62 40.723-86.923 98.584-86.923 54.863 0 91.5 30.305 91.5 77.563 0 35.42-19.006 61.364-75.094 115.092h80.447z" fill="#ffffff" data-original="#000000"></path></g></svg>